<?xml version="1.0" encoding="UTF-8" standalone="no"?>
<!-- Created with Inkscape (http://www.inkscape.org/) -->

<svg
   width="133.08229mm"
   height="28.11072mm"
   viewBox="0 0 133.08229 28.11072"
   version="1.1"
   id="svg1"
   xml:space="preserve"
   inkscape:version="1.4.4 (dcaf3e7d9e, 2026-05-05)"
   sodipodi:docname="ascii-art-text2.png"
   inkscape:dataloss="true"
   xmlns:inkscape="http://www.inkscape.org/namespaces/inkscape"
   xmlns:sodipodi="http://sodipodi.sourceforge.net/DTD/sodipodi-0.dtd"
   xmlns="http://www.w3.org/2000/svg"
   xmlns:svg="http://www.w3.org/2000/svg"><sodipodi:namedview
     id="namedview1"
     pagecolor="#ffffff"
     bordercolor="#000000"
     borderopacity="0.25"
     inkscape:showpageshadow="2"
     inkscape:pageopacity="0.0"
     inkscape:pagecheckerboard="0"
     inkscape:deskcolor="#d1d1d1"
     inkscape:document-units="mm"
     showgrid="false"
     inkscape:zoom="1.0324986"
     inkscape:cx="396.61071"
     inkscape:cy="561.25984"
     inkscape:window-width="2540"
     inkscape:window-height="1370"
     inkscape:window-x="0"
     inkscape:window-y="0"
     inkscape:window-maximized="1"
     inkscape:current-layer="layer1"
     inkscape:export-bgcolor="#ffffff00"><inkscape:page
       x="7.7369862e-21"
       y="0"
       width="133.08231"
       height="28.11072"
       id="page2"
       margin="0"
       bleed="0" /></sodipodi:namedview><defs
     id="defs1" /><g
     inkscape:label="Layer 1"
     inkscape:groupmode="layer"
     id="layer1"
     transform="translate(-37.458294,-135.47494)"><path
       style="fill:#800000"
       d="m 52.597524,161.96591 c -0.971281,-1.76676 -1.070703,-2.41383 -0.370883,-2.41383 0.32213,0 0.692432,0.44514 1.107497,1.33132 0.958739,2.04695 1.125939,2.06753 2.090716,0.25743 0.589264,-1.10558 1.003009,-1.58875 1.360446,-1.58875 0.717835,0 0.649549,0.36759 -0.425339,2.28967 l -0.938991,1.67908 h -0.984312 -0.984312 z m 19.843749,0 c -0.971281,-1.76676 -1.070703,-2.41383 -0.370883,-2.41383 0.32213,0 0.692432,0.44514 1.107498,1.33132 0.958739,2.04695 1.125938,2.06753 2.090715,0.25743 0.589264,-1.10558 1.003009,-1.58875 1.360446,-1.58875 0.717835,0 0.649549,0.36759 -0.425339,2.28967 l -0.938991,1.67908 h -0.984312 -0.984312 z m 19.674666,-0.17398 c -1.094354,-1.99094 -1.142311,-2.23985 -0.431528,-2.23985 0.360691,0 0.78401,0.48283 1.389062,1.58436 1.056834,1.92401 0.953577,1.92055 1.948291,0.0652 l 0.81344,-1.51725 1.038646,-0.0776 1.03864,-0.0776 0.8599,1.56639 c 0.97863,1.78267 1.07691,2.42529 0.37091,2.42529 -0.30875,0 -0.65466,-0.36571 -0.93846,-0.99219 -0.24722,-0.5457 -0.66019,-1.26992 -0.91771,-1.60936 l -0.46823,-0.61718 -0.857783,1.60936 -0.857782,1.60937 h -1.018537 -1.018537 z m 7.780931,1.29944 c 0,-0.79982 1.6856,-3.53929 2.17774,-3.53929 0.65881,0 0.58995,0.40485 -0.39181,2.30366 -0.82955,1.60444 -1.78593,2.26613 -1.78593,1.23563 z m 29.16523,-1.12546 c -0.97128,-1.76676 -1.0707,-2.41383 -0.37088,-2.41383 0.32213,0 0.69243,0.44514 1.1075,1.33132 0.95874,2.04695 1.12594,2.06753 2.09071,0.25743 0.58927,-1.10558 1.00301,-1.58875 1.36045,-1.58875 0.71784,0 0.64955,0.36759 -0.42534,2.28967 l -0.93899,1.67908 h -0.98431 -0.98431 z m 19.84375,0 c -0.97128,-1.76676 -1.0707,-2.41383 -0.37088,-2.41383 0.32213,0 0.69243,0.44514 1.1075,1.33132 0.95874,2.04695 1.12594,2.06753 2.09071,0.25743 0.58927,-1.10558 1.00301,-1.58875 1.36045,-1.58875 0.71784,0 0.64955,0.36759 -0.42534,2.28967 l -0.93899,1.67908 h -0.98431 -0.98431 z m -82.346483,-5.45654 v -2.51354 h 0.529167 0.529167 v 2.51354 2.51354 h -0.529167 -0.529167 z m 11.355647,1.81203 c -0.802965,-1.50036 -0.221185,-4.32557 0.89074,-4.32557 h 0.515302 l -0.196218,0.7276 c -0.107919,0.40018 -0.196217,1.20386 -0.196217,1.78594 0,0.58208 0.0883,1.38575 0.196217,1.78594 l 0.196218,0.7276 h -0.515302 c -0.286712,0 -0.681848,-0.31119 -0.89074,-0.70151 z m 36.798516,-1.81203 v -2.51354 h 0.52917 0.52917 v 2.51354 2.51354 h -0.52917 -0.52917 z m 11.37709,0 v -2.51354 h 0.52916 0.52917 v 2.51354 2.51354 h -0.52917 -0.52916 z m 36.77708,0 v -2.51354 h 0.52916 0.52917 v 2.51354 2.51354 h -0.52917 -0.52916 z m -122.766665,1.5875 v -0.39688 h 5.953125 5.953125 v 0.39688 0.39687 H 46.05416 40.101035 Z m 8.811776,-0.0649 c -1.483679,-0.0471 -3.983991,-0.0472 -5.55625,-3.9e-4 -1.572258,0.0469 -0.358338,0.0854 2.697599,0.0856 3.055937,2.1e-4 4.34233,-0.0381 2.858651,-0.0852 z m 11.031973,0.0649 v -0.39688 h 3.042709 3.042708 v 0.39688 0.39687 h -3.042708 -3.042709 z m 4.44064,-0.0618 c -0.686345,-0.0543 -1.87697,-0.0549 -2.645833,-10e-4 -0.768862,0.0536 -0.207307,0.0981 1.247902,0.0987 1.455208,6.9e-4 2.084277,-0.0432 1.397931,-0.0975 z m 4.026027,0.0618 c 0,-0.31207 0.367477,-0.39688 1.719791,-0.39688 1.352315,0 1.719792,0.0848 1.719792,0.39688 0,0.31207 -0.367477,0.39687 -1.719792,0.39687 -1.352314,0 -1.719791,-0.0848 -1.719791,-0.39687 z m 2.451033,-0.054 c -0.325421,-0.0628 -0.920733,-0.0644 -1.322916,-0.004 -0.402183,0.0608 -0.13593,0.1122 0.591674,0.11419 0.727604,0.002 1.056663,-0.0478 0.731242,-0.11058 z m 8.661466,0.054 v -0.39688 h 6.085417 6.085416 v 0.39688 0.39687 H 85.609367 79.52395 Z m 8.929687,-0.0651 c -1.564349,-0.0468 -4.124192,-0.0468 -5.688541,0 -1.564349,0.0468 -0.284427,0.0851 2.844271,0.0851 3.128697,0 4.408619,-0.0383 2.84427,-0.0851 z m 13.824483,0.0651 v -0.39688 h 5.95312 5.95313 v 0.39688 0.39687 h -5.95313 -5.95312 z m 8.81177,-0.0649 c -1.48368,-0.0471 -3.98399,-0.0472 -5.55625,-3.9e-4 -1.57226,0.0469 -0.35834,0.0854 2.6976,0.0856 3.05594,2.1e-4 4.34233,-0.0381 2.85865,-0.0852 z m 5.47573,0.0649 v -0.39688 h 4.49791 4.49792 v 0.39688 0.39687 h -4.49792 -4.49791 z m 6.54843,-0.0644 c -1.12778,-0.0496 -2.97325,-0.0496 -4.10104,0 -1.12778,0.0496 -0.20505,0.0902 2.05052,0.0902 2.25558,0 3.17831,-0.0406 2.05052,-0.0902 z m 16.00704,0.13052 c 0.081,-0.24361 1.30647,-0.34979 4.65226,-0.40312 l 4.54226,-0.0724 v 0.40312 0.40312 h -4.65225 c -3.60408,0 -4.62748,-0.0745 -4.54227,-0.33073 z m 6.75969,-0.13029 c -1.12087,-0.0495 -3.02587,-0.0498 -4.23333,-6.1e-4 -1.20746,0.0491 -0.29038,0.0896 2.03796,0.0899 2.32833,3.3e-4 3.31625,-0.0399 2.19537,-0.0893 z m 10.10775,0.0641 v -0.39688 h 3.175 3.175 v 0.39688 0.39687 h -3.175 -3.175 z m 4.56406,-0.0628 c -0.76398,-0.0534 -2.01414,-0.0534 -2.77812,0 -0.76399,0.0534 -0.13891,0.0972 1.38906,0.0972 1.52797,0 2.15305,-0.0437 1.38906,-0.0972 z M 37.458357,157.63385 c 0.0074,-0.78006 1.783064,-3.50823 2.336717,-3.59028 0.776232,-0.11503 0.724615,0.18291 -0.379778,2.19211 -0.886264,1.61236 -1.966343,2.38404 -1.956939,1.39817 z m 37.724249,-1.39817 c -1.09363,-1.98962 -1.142128,-2.23985 -0.434105,-2.23985 0.497093,0 2.394199,2.90283 2.394199,3.66344 0,0.95884 -1.082833,0.17239 -1.960094,-1.42359 z m 21.796374,1.39817 c -0.0164,-0.72552 1.73551,-3.6336 2.19028,-3.63579 0.67827,-0.003 0.57025,0.66164 -0.3918,2.4116 -0.79524,1.44655 -1.77835,2.11572 -1.79848,1.22419 z m 36.78771,0 c 0.002,-0.1819 0.39978,-1.04511 0.88455,-1.91823 l 0.8814,-1.5875 1.03367,-0.075 1.03368,-0.0751 0.88272,1.71703 c 1.38785,2.69959 0.4712,3.30693 -0.98721,0.65409 -0.97217,-1.76839 -0.91271,-1.77891 -2.02726,0.35867 -0.62404,1.19683 -1.70977,1.78773 -1.70155,0.92604 z m -76.467739,-0.48779 c 0,-0.33142 0.212566,-0.60953 0.529167,-0.69232 0.291041,-0.0761 0.529166,-0.23553 0.529166,-0.35428 0,-0.11874 -0.238125,-0.29147 -0.529166,-0.38384 -0.518082,-0.16443 -0.765031,-1.19063 -0.286519,-1.19063 2.223056,0 3.213055,1.74631 1.470066,2.59311 -1.485097,0.72152 -1.712714,0.72524 -1.712714,0.028 z m 96.144189,0.23781 c -0.11736,-0.18989 0.0845,-0.52509 0.50559,-0.83946 l 0.70096,-0.52335 -0.56645,-0.28501 c -1.62261,-0.81641 -0.52862,-1.43867 1.19156,-0.67776 1.67216,0.73968 1.65396,1.34137 -0.0629,2.07996 -1.52777,0.65722 -1.51542,0.65551 -1.76874,0.24562 z m -95.350439,-6.43075 v -2.51354 h 0.529167 0.529166 v 2.51354 2.51354 h -0.529166 -0.529167 z m 56.620829,0 v -2.51354 h 0.52917 0.52917 v 2.51354 2.51354 h -0.52917 -0.52917 z m 11.37709,0 v -2.51354 h 0.52916 0.52917 v 2.51354 2.51354 h -0.52917 -0.52916 z m 28.31041,0 v -2.51354 h 0.52917 0.52916 v 2.51354 2.51354 h -0.52916 -0.52917 z m 8.46667,0 v -2.51354 h 0.52916 0.52917 v 2.51354 2.51354 h -0.52917 -0.52916 z m -120.120832,1.71979 c 0,-0.14552 -0.148828,-0.26559 -0.330729,-0.26681 -0.343481,-0.002 -2.071117,-3.05449 -2.057989,-3.63579 0.0231,-1.02281 1.049238,-0.20427 1.886442,1.50478 l 0.899151,1.83552 4.431771,0.0166 4.431771,0.0166 v 0.39688 0.39687 h -4.630208 c -2.910417,0 -4.630209,-0.0983 -4.630209,-0.26458 z m 6.825584,-0.19644 c -1.120877,-0.0495 -3.025877,-0.0497 -4.233333,-6.1e-4 -1.207457,0.0491 -0.290376,0.0896 2.037958,0.0899 2.328333,3.3e-4 3.316252,-0.0399 2.195375,-0.0893 z m 35.772331,0.0642 v -0.39688 h 3.175 3.175 v 0.39688 0.39687 h -3.175 -3.175 z m 4.564063,-0.0628 c -0.763985,-0.0534 -2.014141,-0.0534 -2.778125,0 -0.763985,0.0534 -0.138907,0.0972 1.389062,0.0972 1.527969,0 2.153047,-0.0437 1.389063,-0.0972 z m 9.458854,0.19506 c 0,-0.14552 -0.14883,-0.26559 -0.33073,-0.26681 -0.34348,-0.002 -2.07112,-3.05449 -2.05799,-3.63579 0.0231,-1.02281 1.04924,-0.20427 1.88644,1.50478 l 0.89916,1.83552 4.43177,0.0166 4.43177,0.0166 v 0.39688 0.39687 h -4.63021 c -2.91042,0 -4.63021,-0.0983 -4.63021,-0.26458 z m 6.82558,-0.19644 c -1.12087,-0.0495 -3.02587,-0.0497 -4.23333,-6.1e-4 -1.20746,0.0491 -0.29037,0.0896 2.03796,0.0899 2.32833,3.3e-4 3.31625,-0.0399 2.19537,-0.0893 z m 35.77234,0.0642 v -0.39688 h 4.30994 4.30995 l 1.00035,-1.85208 c 0.92342,-1.70964 2.02142,-2.54983 2.02142,-1.54678 0,0.60674 -1.88729,3.66345 -2.26191,3.66345 -0.21116,0 -0.38392,0.11906 -0.38392,0.26458 0,0.16601 -1.6757,0.26458 -4.49792,0.26458 h -4.49791 z m 6.54843,-0.0644 c -1.12778,-0.0496 -2.97325,-0.0496 -4.10104,0 -1.12779,0.0496 -0.20505,0.0902 2.05052,0.0902 2.25557,0 3.17831,-0.0406 2.05052,-0.0902 z m -93.175193,-1.79681 c -1.09363,-1.98962 -1.142128,-2.23985 -0.434105,-2.23985 0.497093,0 2.394199,2.90283 2.394199,3.66344 0,0.95884 -1.082833,0.17239 -1.960094,-1.42359 z m 24.71426,1.29944 c 0,-0.79982 1.685607,-3.53929 2.177739,-3.53929 0.658809,0 0.589954,0.40485 -0.391802,2.30366 -0.829551,1.60444 -1.785937,2.26613 -1.785937,1.23563 z m 15.546795,-0.16586 c -1.400391,-2.14275 -1.772134,-3.37343 -1.018993,-3.37343 0.467241,0 2.405531,2.99202 2.405531,3.71327 0,0.49421 -1.001949,0.24863 -1.386538,-0.33984 z m 39.687498,0 c -1.40039,-2.14275 -1.77213,-3.37343 -1.01899,-3.37343 0.46724,0 2.40553,2.99202 2.40553,3.71327 0,0.49421 -1.00195,0.24863 -1.38654,-0.33984 z m -62.708772,-0.24079 c -1.835325,-0.80943 -0.863009,-2.60348 1.410998,-2.60348 0.511052,0 0.223821,1.08235 -0.342862,1.29198 l -0.58551,0.2166 0.58551,0.31335 c 0.32203,0.17235 0.58551,0.54729 0.58551,0.83322 0,0.64064 -0.09027,0.63782 -1.653646,-0.0517 z m -6.019271,-6.17535 v -2.51354 h 0.529167 0.529167 v 2.51354 2.51354 h -0.529167 -0.529167 z m 39.687503,0 v -2.51354 h 0.52916 0.52917 v 2.51354 2.51354 h -0.52917 -0.52916 z m 8.46666,0 v -2.51354 h 0.52917 0.52917 v 2.51354 2.51354 h -0.52917 -0.52917 z m -66.145828,1.5811 v -0.40327 l 4.409986,0.0725 c 3.239814,0.0533 4.439169,0.1603 4.519965,0.40327 0.08512,0.25597 -0.911748,0.33073 -4.409986,0.33073 h -4.519965 z m 6.548437,-0.058 c -1.127787,-0.0496 -2.973255,-0.0496 -4.101042,0 -1.127786,0.0496 -0.205052,0.0902 2.050521,0.0902 2.255573,0 3.178307,-0.0406 2.050521,-0.0902 z m 24.407811,0.19667 c 0,-0.14552 -0.178594,-0.26458 -0.396875,-0.26458 -0.218281,0 -0.397992,-0.0893 -0.399358,-0.19844 -0.0014,-0.10914 -0.370334,-0.83993 -0.819929,-1.62397 l -0.817447,-1.42553 -0.915184,1.62397 c -0.629641,1.11728 -1.075506,1.62397 -1.429028,1.62397 -0.705484,0 -0.656483,-0.25146 0.436477,-2.23985 l 0.950322,-1.7289 h 0.994797 0.994796 l 0.899152,1.83551 0.899152,1.83552 2.976563,0.0166 2.976562,0.0166 v 0.39688 0.39687 h -3.175 c -1.940278,0 -3.175,-0.10289 -3.175,-0.26458 z m 4.564063,-0.19506 c -0.763985,-0.0534 -2.014141,-0.0534 -2.778125,0 -0.763985,0.0534 -0.138907,0.0972 1.389062,0.0972 1.527969,0 2.153047,-0.0437 1.389063,-0.0972 z m 49.475937,0.12891 c 0.064,-0.19394 0.70228,-0.36878 1.5434,-0.42275 l 1.43431,-0.092 0.89915,-1.8262 c 0.8307,-1.68719 1.87897,-2.52735 1.87897,-1.50594 0,0.59308 -1.71655,3.64651 -2.05052,3.6475 -0.1819,5.4e-4 -0.33073,0.12004 -0.33073,0.26556 0,0.1496 -0.757,0.26458 -1.74184,0.26458 -1.27527,0 -1.71262,-0.0886 -1.63274,-0.33073 z m 2.38603,-0.1201 c -0.32542,-0.0628 -0.92073,-0.0644 -1.32291,-0.004 -0.40219,0.0608 -0.13593,0.1122 0.59167,0.11419 0.7276,0.002 1.05666,-0.0478 0.73124,-0.11058 z m 6.01564,0.054 v -0.39688 h 3.175 3.17499 v 0.39688 0.39687 h -3.17499 -3.175 z m 4.56406,-0.0628 c -0.76399,-0.0534 -2.01414,-0.0534 -2.77813,0 -0.76398,0.0534 -0.1389,0.0972 1.38907,0.0972 1.52796,0 2.15304,-0.0437 1.38906,-0.0972 z m 15.27968,0.0628 v -0.39688 h 3.175 3.175 v 0.39688 0.39687 h -3.175 -3.175 z m 4.56407,-0.0628 c -0.76399,-0.0534 -2.01414,-0.0534 -2.77813,0 -0.76398,0.0534 -0.1389,0.0972 1.38906,0.0972 1.52797,0 2.15305,-0.0437 1.38907,-0.0972 z M 40.35815,146.52135 c -0.01638,-0.72552 1.735505,-3.6336 2.190281,-3.63579 0.678268,-0.003 0.570243,0.66164 -0.391801,2.4116 -0.795245,1.44655 -1.778346,2.11572 -1.79848,1.22419 z m 17.068778,0.0592 c -0.293341,-0.47463 1.571685,-3.55538 2.209304,-3.64944 0.778946,-0.11491 0.727927,0.1816 -0.377187,2.19211 -0.898199,1.63407 -1.451084,2.07386 -1.832117,1.45733 z m 11.241637,-0.0592 c -0.01638,-0.72552 1.735505,-3.6336 2.190281,-3.63579 0.678268,-0.003 0.570243,0.66164 -0.391801,2.4116 -0.795245,1.44655 -1.778346,2.11572 -1.79848,1.22419 z m 23.447374,-1.39817 c -1.093631,-1.98962 -1.142129,-2.23985 -0.434105,-2.23985 0.497093,0 2.394199,2.90283 2.394199,3.66344 0,0.95884 -1.082833,0.17239 -1.960094,-1.42359 z m 24.706791,1.39817 c -0.0164,-0.72552 1.73551,-3.6336 2.19028,-3.63579 0.67827,-0.003 0.57025,0.66164 -0.3918,2.4116 -0.79524,1.44655 -1.77835,2.11572 -1.79848,1.22419 z m 14.98071,-1.39817 c -1.09363,-1.98962 -1.14213,-2.23985 -0.43411,-2.23985 0.5802,0 2.55703,3.22664 2.26567,3.69808 -0.38047,0.61561 -0.93379,0.17507 -1.83156,-1.45823 z m 19.84375,0 c -1.09363,-1.98962 -1.14213,-2.23985 -0.43411,-2.23985 0.4971,0 2.3942,2.90283 2.3942,3.66344 0,0.95884 -1.08283,0.17239 -1.96009,-1.42359 z m 16.93333,0 c -1.09363,-1.98962 -1.14213,-2.23985 -0.43411,-2.23985 0.4971,0 2.3942,2.90283 2.3942,3.66344 0,0.95884 -1.08283,0.17239 -1.96009,-1.42359 z m -73.380008,0.90156 c -1.746345,-0.80074 -0.759932,-2.56752 1.455208,-2.60644 0.54349,-0.01 0.37387,1.00318 -0.198437,1.18482 -0.682886,0.21674 -0.676057,0.57918 0.01505,0.79852 0.542707,0.17225 0.627567,0.94981 0.117244,1.07421 -0.14552,0.0355 -0.770598,-0.16753 -1.389062,-0.45111 z m -37.107811,-6.18412 v -2.51354 h 0.529167 0.529166 v 2.51354 2.51354 h -0.529166 -0.529167 z m 8.466666,0 v -2.51354 h 0.529167 0.529167 v 2.51354 2.51354 h -0.529167 -0.529167 z m 96.308333,0 v -2.51354 h 0.52916 0.52917 v 2.51354 2.51354 h -0.52917 -0.52916 z m -120.120832,1.5875 v -0.39688 h 7.408333 7.408333 v 0.39688 0.39687 h -7.408333 -7.408333 z m 10.914062,-0.0655 c -1.92815,-0.0452 -5.083307,-0.0452 -7.011458,0 -1.92815,0.0452 -0.350572,0.0822 3.505729,0.0822 3.856302,0 5.43388,-0.037 3.505729,-0.0822 z m 17.396354,0.0655 v -0.39688 h 10.318749 10.31875 v 0.39688 0.39687 H 81.376033 71.057284 Z m 15.279687,-0.0658 c -2.728516,-0.043 -7.193359,-0.043 -9.921875,0 -2.728515,0.043 -0.496094,0.0782 4.960937,0.0782 5.457031,0 7.689453,-0.0352 4.960938,-0.0782 z m 10.384899,0.0658 v -0.39688 h 4.49791 4.49792 v 0.39688 0.39687 h -4.49792 -4.49791 z m 6.54843,-0.0644 c -1.12778,-0.0496 -2.97325,-0.0496 -4.10104,0 -1.12778,0.0496 -0.20505,0.0902 2.05052,0.0902 2.25558,0 3.17831,-0.0406 2.05052,-0.0902 z m 4.56407,0.0644 v -0.39688 h 3.175 3.175 v 0.39688 0.39687 h -3.175 -3.175 z m 4.56406,-0.0628 c -0.76399,-0.0534 -2.01414,-0.0534 -2.77813,0 -0.76398,0.0534 -0.1389,0.0972 1.38907,0.0972 1.52797,0 2.15304,-0.0437 1.38906,-0.0972 z m 6.81302,0.0628 v -0.39688 h 5.95312 5.95313 v 0.39688 0.39687 h -5.95313 -5.95312 z m 8.81178,-0.0649 c -1.48368,-0.0471 -3.984,-0.0473 -5.55625,-3.9e-4 -1.57226,0.0469 -0.35834,0.0854 2.69759,0.0856 3.05594,2.1e-4 4.34233,-0.0381 2.85866,-0.0852 z m 11.03197,0.0649 v -0.39688 l 7.20989,-0.0112 7.2099,-0.0112 0.92112,-1.84089 c 0.88445,-1.76761 1.857,-2.50681 1.857,-1.41144 0,0.65785 -1.66526,3.5393 -2.04544,3.5393 -0.18469,0 -0.33581,0.11906 -0.33581,0.26458 0,0.17009 -2.64583,0.26458 -7.40833,0.26458 h -7.40833 z m 10.91406,-0.0655 c -1.92815,-0.0452 -5.08331,-0.0452 -7.01146,0 -1.92815,0.0452 -0.35057,0.0822 3.50573,0.0822 3.8563,0 5.43388,-0.037 3.50573,-0.0822 z m 14.75052,0.0655 c 0,-0.31207 0.36748,-0.39688 1.71979,-0.39688 1.35232,0 1.71979,0.0848 1.71979,0.39688 0,0.31207 -0.36747,0.39687 -1.71979,0.39687 -1.35231,0 -1.71979,-0.0848 -1.71979,-0.39687 z m 2.45103,-0.054 c -0.32542,-0.0628 -0.92073,-0.0644 -1.32291,-0.004 -0.40219,0.0608 -0.13593,0.1122 0.59167,0.11419 0.72761,0.002 1.05667,-0.0478 0.73124,-0.11058 z m -60.92394,-0.75819 v -0.67986 l 0.59531,0.0845 c 0.38258,0.0543 0.62553,0.29729 0.67986,0.67986 l 0.0846,0.59532 h -0.67986 -0.67986 z m 8.46666,0 v -0.67986 l 0.59532,0.0845 c 0.38257,0.0543 0.62552,0.29729 0.67986,0.67986 l 0.0845,0.59532 h -0.67986 -0.67986 z m -54.768746,-4.7441 v -0.39688 h 3.042709 3.042708 v 0.39688 0.39687 h -3.042708 -3.042709 z m 4.44064,-0.0618 c -0.686345,-0.0543 -1.87697,-0.0549 -2.645833,-0.001 -0.768862,0.0536 -0.207307,0.0981 1.247902,0.0987 1.455208,6.9e-4 2.084277,-0.0432 1.397931,-0.0975 z m 91.603106,0.0618 v -0.39688 h 3.175 3.175 v 0.39688 0.39687 h -3.175 -3.175 z m 4.56406,-0.0628 c -0.76398,-0.0534 -2.01414,-0.0534 -2.77812,0 -0.76399,0.0534 -0.13891,0.0972 1.38906,0.0972 1.52797,0 2.15305,-0.0437 1.38906,-0.0972 z"
       id="path1" /></g></svg>
